<mxfile host="app.diagrams.net" modified="2023-10-07T00:24:27.828Z" agent="Mozilla/5.0 (Windows NT 10.0; Win64; x64) AppleWebKit/537.36 (KHTML, like Gecko) Chrome/117.0.0.0 Safari/537.36 Edg/117.0.2045.47" etag="9-28ifaRTElfESWptcIG" version="22.0.4" type="github">
  <diagram name="Page-1" id="ctzMrAQ5W3zzFSxHdsyH">
    <mxGraphModel dx="2037" dy="1133" grid="1" gridSize="10" guides="1" tooltips="1" connect="1" arrows="1" fold="1" page="1" pageScale="1" pageWidth="1100" pageHeight="850" math="0" shadow="0">
      <root>
        <mxCell id="0" />
        <mxCell id="1" parent="0" />
      </root>
    </mxGraphModel>
  </diagram>
</mxfile>
